<svg width="48" height="48" viewBox="0 0 48 48" fill="none" xmlns="http://www.w3.org/2000/svg">
<path d="M19.9997 21.3333H10.6663C10.3127 21.3333 9.97358 21.1928 9.72353 20.9427C9.47348 20.6927 9.33301 20.3535 9.33301 19.9999V10.6666C9.33301 10.313 9.47348 9.97382 9.72353 9.72378C9.97358 9.47373 10.3127 9.33325 10.6663 9.33325H19.9997C20.3533 9.33325 20.6924 9.47373 20.9425 9.72378C21.1925 9.97382 21.333 10.313 21.333 10.6666V19.9999C21.333 20.3535 21.1925 20.6927 20.9425 20.9427C20.6924 21.1928 20.3533 21.3333 19.9997 21.3333Z" fill="#8C30F5"/>
<path d="M19.9997 38.6665H10.6663C10.3127 38.6665 9.97358 38.526 9.72353 38.276C9.47348 38.0259 9.33301 37.6868 9.33301 37.3332V27.9998C9.33301 27.6462 9.47348 27.3071 9.72353 27.057C9.97358 26.807 10.3127 26.6665 10.6663 26.6665H19.9997C20.3533 26.6665 20.6924 26.807 20.9425 27.057C21.1925 27.3071 21.333 27.6462 21.333 27.9998V37.3332C21.333 37.6868 21.1925 38.0259 20.9425 38.276C20.6924 38.526 20.3533 38.6665 19.9997 38.6665Z" fill="#8C30F5"/>
<path d="M25.333 10.6665H38.6663V13.3332H25.333V10.6665Z" fill="#2EC5CE"/>
<path d="M38.6663 28H25.333V30.6667H38.6663V28Z" fill="#2EC5CE"/>
<path d="M38.6663 34.6665H25.333V37.3332H38.6663V34.6665Z" fill="#D6B1FF"/>
<path d="M38.6663 17.3333H25.333V19.9999H38.6663V17.3333Z" fill="#D6B1FF"/>
</svg>
