<svg width="135" height="40" viewBox="0 0 135 40" fill="none" xmlns="http://www.w3.org/2000/svg">
<g clip-path="url(#clip0)">
<path d="M124.249 3.84473e-05H10.7566C10.3429 3.84473e-05 9.9342 3.84473e-05 9.5216 0.00203845C9.17621 0.00403845 8.83358 0.00984845 8.48488 0.0147384C7.72733 0.0226403 6.97157 0.0817147 6.22416 0.191448C5.4778 0.303571 4.75482 0.514954 4.07967 0.818448C3.40534 1.12451 2.7892 1.52221 2.25357 1.99711C1.71514 2.47068 1.26632 3.01805 0.924356 3.6182C0.581453 4.21715 0.343683 4.85898 0.219258 5.52152C0.0936495 6.18322 0.0260586 6.85256 0.0170916 7.52352C0.00662229 7.83012 0.00551669 8.13774 0 8.44438V31.5586C0.00551669 31.8691 0.00662229 32.1699 0.0170916 32.4805C0.0260614 33.1515 0.0936522 33.8208 0.219258 34.4824C0.343339 35.1454 0.581124 35.7876 0.924356 36.3867C1.26616 36.9849 1.71505 37.5301 2.25357 38.001C2.78717 38.4781 3.40371 38.876 4.07967 39.1797C4.75481 39.484 5.47772 39.6967 6.22416 39.8105C6.9717 39.9194 7.72738 39.9785 8.48488 39.9873C8.83358 39.9941 9.17621 39.998 9.5216 39.998C9.93419 40 10.343 40 10.7566 40H124.249C124.655 40 125.067 40 125.472 39.998C125.816 39.998 126.169 39.9941 126.512 39.9873C127.268 39.979 128.023 39.9199 128.769 39.8105C129.518 39.6959 130.243 39.4833 130.921 39.1797C131.597 38.8758 132.213 38.4779 132.746 38.001C133.283 37.5283 133.733 36.9835 134.079 36.3867C134.42 35.7871 134.655 35.145 134.777 34.4824C134.903 33.8207 134.973 33.1515 134.987 32.4805C134.991 32.1699 134.991 31.8691 134.991 31.5586C135 31.1953 135 30.834 135 30.4648V9.53617C135 9.16996 135 8.80668 134.991 8.44438C134.991 8.13774 134.991 7.83012 134.987 7.52348C134.973 6.85246 134.903 6.18327 134.777 5.52148C134.655 4.85932 134.419 4.21754 134.079 3.61816C133.383 2.41523 132.278 1.43606 130.921 0.818358C130.243 0.515606 129.518 0.304279 128.769 0.191358C128.023 0.0811412 127.269 0.0220462 126.512 0.0145984C126.169 0.00971845 125.816 0.00385845 125.472 0.00190845C125.067 -9.15527e-05 124.655 -9.15527e-05 124.249 -9.15527e-05V3.84473e-05Z" fill="#A6A6A6"/>
<path d="M9.43001 39.1281C9.08569 39.1281 8.74969 39.1242 8.40807 39.1174C7.70037 39.1092 6.99433 39.0547 6.29574 38.9542C5.64433 38.8549 5.0133 38.6702 4.42345 38.4062C3.839 38.1444 3.30594 37.8011 2.84469 37.3894C2.37676 36.9826 1.98718 36.5108 1.6914 35.9926C1.39236 35.4711 1.18541 34.9121 1.07775 34.3351C0.961494 33.715 0.898592 33.0881 0.889592 32.4597C0.882427 32.2487 0.873047 31.5464 0.873047 31.5464V8.44098C0.873047 8.44098 0.883037 7.74942 0.889648 7.54625C0.898266 6.9188 0.960802 6.29284 1.07671 5.67379C1.18457 5.09519 1.39168 4.53457 1.69088 4.01134C1.98557 3.49355 2.37299 3.02137 2.8381 2.6131C3.30269 2.20096 3.83745 1.85587 4.42289 1.59042C5.01139 1.32725 5.64123 1.14385 6.29132 1.04636C6.99221 0.944908 7.7007 0.890056 8.41085 0.882269L9.43056 0.870056H125.57L126.602 0.882759C127.306 0.89016 128.008 0.944522 128.702 1.04538C129.359 1.14409 129.995 1.32877 130.59 1.59335C131.763 2.12831 132.718 2.97466 133.32 4.01378C133.614 4.5334 133.818 5.08945 133.924 5.66305C134.042 6.28718 134.107 6.91806 134.121 7.55065C134.124 7.83391 134.124 8.13818 134.124 8.44098C134.133 8.81606 134.133 9.17306 134.133 9.533V30.466C134.133 30.8294 134.133 31.184 134.124 31.5415C134.124 31.8667 134.124 32.1647 134.12 32.4714C134.107 33.0927 134.042 33.7123 133.927 34.3253C133.821 34.9064 133.615 35.4698 133.316 35.9956C133.018 36.5081 132.631 36.9759 132.169 37.3816C131.707 37.7955 131.173 38.1408 130.587 38.4043C129.994 38.6704 129.358 38.8557 128.702 38.9542C128.004 39.0552 127.297 39.1097 126.59 39.1174C126.259 39.1242 125.912 39.1281 125.576 39.1281L124.35 39.1301L9.43001 39.1281Z" fill="black"/>
<path d="M32.7973 20.3007C32.8081 19.4661 33.0298 18.6477 33.4418 17.9217C33.8538 17.1958 34.4428 16.5858 35.1539 16.1487C34.7021 15.5035 34.1062 14.9726 33.4134 14.598C32.7205 14.2235 31.9499 14.0156 31.1627 13.991C29.4835 13.8147 27.8555 14.9958 26.9998 14.9958C26.1275 14.9958 24.81 14.0085 23.3913 14.0377C22.4736 14.0673 21.5793 14.3342 20.7954 14.8122C20.0115 15.2903 19.3649 15.9633 18.9184 16.7655C16.9844 20.114 18.427 25.035 20.2796 27.7416C21.2065 29.067 22.2898 30.5474 23.7072 30.4949C25.0943 30.4374 25.6123 29.6104 27.2866 29.6104C28.9454 29.6104 29.4314 30.4949 30.8776 30.4615C32.366 30.4374 33.3038 29.1303 34.1981 27.7924C34.8641 26.848 35.3766 25.8043 35.7166 24.6999C34.8518 24.3342 34.1139 23.722 33.5948 22.9397C33.0757 22.1574 32.7983 21.2396 32.7973 20.3007Z" fill="white"/>
<path d="M30.0659 12.2109C30.8774 11.2367 31.2772 9.98454 31.1804 8.72031C29.9406 8.85053 28.7953 9.44309 27.9728 10.3799C27.5707 10.8376 27.2627 11.37 27.0664 11.9468C26.8702 12.5236 26.7896 13.1334 26.8291 13.7413C27.4493 13.7477 28.0628 13.6133 28.6234 13.3482C29.1841 13.0831 29.6773 12.6943 30.0659 12.2109Z" fill="white"/>
<path d="M50.3311 27.1397H45.5977L44.4609 30.4961H42.4561L46.9395 18.0781H49.0225L53.5059 30.4961H51.4668L50.3311 27.1397ZM46.0879 25.5908H49.8399L47.9903 20.1436H47.9385L46.0879 25.5908Z" fill="white"/>
<path d="M63.1885 25.9698C63.1885 28.7832 61.6826 30.5908 59.4102 30.5908C58.8345 30.621 58.262 30.4884 57.7582 30.2082C57.2544 29.9281 56.8397 29.5117 56.5616 29.0068H56.5186V33.4912H54.6602V21.4424H56.459V22.9483H56.4932C56.7841 22.4458 57.2059 22.0316 57.7135 21.7498C58.2211 21.4679 58.7957 21.329 59.376 21.3477C61.6738 21.3477 63.1885 23.1641 63.1885 25.9698ZM61.2783 25.9698C61.2783 24.1368 60.3311 22.9317 58.8858 22.9317C57.4658 22.9317 56.5108 24.1621 56.5108 25.9698C56.5108 27.794 57.4658 29.0157 58.8858 29.0157C60.3311 29.0157 61.2783 27.8194 61.2783 25.9698Z" fill="white"/>
<path d="M73.1533 25.9697C73.1533 28.7832 71.6475 30.5908 69.375 30.5908C68.7994 30.621 68.2269 30.4883 67.7231 30.2082C67.2193 29.9281 66.8046 29.5117 66.5264 29.0068H66.4834V33.4912H64.625V21.4424H66.4238V22.9483H66.458C66.749 22.4458 67.1707 22.0316 67.6783 21.7498C68.186 21.4679 68.7605 21.329 69.3408 21.3477C71.6387 21.3477 73.1533 23.1641 73.1533 25.9697ZM71.2432 25.9697C71.2432 24.1367 70.2959 22.9317 68.8506 22.9317C67.4307 22.9317 66.4756 24.1621 66.4756 25.9697C66.4756 27.794 67.4307 29.0156 68.8506 29.0156C70.2959 29.0156 71.2432 27.8194 71.2432 25.9697H71.2432Z" fill="white"/>
<path d="M79.7393 27.0362C79.877 28.2676 81.0733 29.0762 82.708 29.0762C84.2744 29.0762 85.4014 28.2676 85.4014 27.1572C85.4014 26.1933 84.7217 25.6162 83.1123 25.2207L81.503 24.833C79.2227 24.2822 78.1641 23.2158 78.1641 21.4853C78.1641 19.3427 80.0313 17.8711 82.6826 17.8711C85.3066 17.8711 87.1055 19.3427 87.166 21.4853H85.29C85.1777 20.2461 84.1533 19.498 82.6563 19.498C81.1592 19.498 80.1348 20.2549 80.1348 21.3564C80.1348 22.2344 80.7891 22.751 82.3897 23.1464L83.7578 23.4824C86.3057 24.0849 87.3643 25.1084 87.3643 26.9247C87.3643 29.248 85.5137 30.7031 82.5703 30.7031C79.8164 30.7031 77.957 29.2822 77.8369 27.0361L79.7393 27.0362Z" fill="white"/>
<path d="M91.375 19.2998V21.4424H93.0967V22.9141H91.375V27.9053C91.375 28.6807 91.7197 29.042 92.4766 29.042C92.6809 29.0385 92.885 29.0241 93.0879 28.999V30.4619C92.7476 30.5255 92.4018 30.5543 92.0557 30.5479C90.2227 30.5479 89.5078 29.8594 89.5078 28.1035V22.9141H88.1914V21.4424H89.5078V19.2998H91.375Z" fill="white"/>
<path d="M94.0938 25.9698C94.0938 23.1211 95.7715 21.3311 98.3877 21.3311C101.013 21.3311 102.683 23.1211 102.683 25.9698C102.683 28.8262 101.021 30.6084 98.3877 30.6084C95.7548 30.6084 94.0938 28.8262 94.0938 25.9698ZM100.789 25.9698C100.789 24.0157 99.8935 22.8623 98.3877 22.8623C96.8818 22.8623 95.9873 24.0244 95.9873 25.9698C95.9873 27.9317 96.8818 29.0762 98.3877 29.0762C99.8935 29.0762 100.789 27.9317 100.789 25.9698H100.789Z" fill="white"/>
<path d="M104.215 21.4424H105.987V22.9834H106.03C106.15 22.5021 106.432 22.0768 106.829 21.7789C107.225 21.481 107.712 21.3287 108.208 21.3477C108.422 21.3469 108.636 21.3702 108.845 21.417V23.1553C108.574 23.0727 108.292 23.0347 108.01 23.043C107.74 23.032 107.471 23.0796 107.221 23.1825C106.971 23.2854 106.746 23.4411 106.562 23.639C106.378 23.8369 106.239 24.0723 106.155 24.329C106.071 24.5856 106.043 24.8575 106.073 25.126V30.4961H104.215L104.215 21.4424Z" fill="white"/>
<path d="M117.413 27.8369C117.163 29.4805 115.562 30.6084 113.515 30.6084C110.881 30.6084 109.246 28.8438 109.246 26.0127C109.246 23.1729 110.89 21.3311 113.437 21.3311C115.941 21.3311 117.517 23.0518 117.517 25.7969V26.4336H111.122V26.5459C111.093 26.8791 111.134 27.2148 111.244 27.5306C111.355 27.8465 111.531 28.1353 111.761 28.3778C111.991 28.6204 112.271 28.8111 112.581 28.9374C112.89 29.0637 113.223 29.1227 113.558 29.1104C113.997 29.1515 114.437 29.0498 114.814 28.8204C115.191 28.5909 115.484 28.246 115.648 27.8369L117.413 27.8369ZM111.131 25.1348H115.657C115.674 24.8352 115.628 24.5354 115.524 24.2542C115.419 23.973 115.257 23.7164 115.049 23.5007C114.84 23.2849 114.59 23.1146 114.312 23.0003C114.035 22.8861 113.737 22.8305 113.437 22.8369C113.134 22.8351 112.834 22.8933 112.554 23.008C112.274 23.1228 112.019 23.2918 111.805 23.5055C111.591 23.7191 111.421 23.9731 111.305 24.2527C111.189 24.5324 111.13 24.8322 111.131 25.1348V25.1348Z" fill="white"/>
<path d="M45.8545 8.73104C46.2441 8.70309 46.6351 8.76195 46.9992 8.90338C47.3633 9.04481 47.6915 9.26529 47.9601 9.54892C48.2286 9.83254 48.4309 10.1722 48.5523 10.5435C48.6737 10.9148 48.7112 11.3084 48.6621 11.6959C48.6621 13.6021 47.6318 14.6979 45.8545 14.6979H43.6992V8.73104H45.8545ZM44.626 13.854H45.751C46.0294 13.8707 46.308 13.825 46.5665 13.7204C46.8251 13.6158 47.057 13.4549 47.2455 13.2493C47.434 13.0437 47.5743 12.7987 47.6562 12.5321C47.738 12.2655 47.7594 11.984 47.7187 11.708C47.7564 11.4332 47.7329 11.1534 47.6498 10.8888C47.5667 10.6241 47.426 10.3811 47.238 10.1772C47.0499 9.97325 46.8191 9.81344 46.562 9.7092C46.3049 9.60497 46.028 9.55888 45.751 9.57425H44.626V13.854Z" fill="white"/>
<path d="M49.7093 12.4444C49.681 12.1485 49.7148 11.8499 49.8086 11.5678C49.9025 11.2858 50.0542 11.0264 50.2542 10.8064C50.4541 10.5864 50.6978 10.4107 50.9697 10.2904C51.2415 10.1701 51.5355 10.108 51.8328 10.108C52.1301 10.108 52.4241 10.1701 52.6959 10.2904C52.9678 10.4107 53.2115 10.5864 53.4114 10.8064C53.6114 11.0264 53.7631 11.2858 53.857 11.5678C53.9508 11.8499 53.9846 12.1485 53.9563 12.4444C53.9852 12.7406 53.9517 13.0396 53.8581 13.3221C53.7645 13.6046 53.6129 13.8645 53.4129 14.0849C53.2129 14.3053 52.969 14.4814 52.6969 14.6019C52.4248 14.7225 52.1304 14.7848 51.8328 14.7848C51.5352 14.7848 51.2408 14.7225 50.9687 14.6019C50.6966 14.4814 50.4527 14.3053 50.2527 14.0849C50.0527 13.8645 49.9011 13.6046 49.8075 13.3221C49.7139 13.0396 49.6804 12.7406 49.7093 12.4444ZM53.0423 12.4444C53.0423 11.4683 52.6038 10.8975 51.8343 10.8975C51.0618 10.8975 50.6273 11.4683 50.6273 12.4444C50.6273 13.4283 51.0618 13.9947 51.8343 13.9947C52.6038 13.9947 53.0423 13.4244 53.0423 12.4444H53.0423Z" fill="white"/>
<path d="M59.6016 14.6978H58.6797L57.749 11.3814H57.6787L56.752 14.6978H55.8389L54.5977 10.1949H55.499L56.3057 13.6309H56.3721L57.2979 10.1949H58.1504L59.0762 13.6309H59.1465L59.9492 10.1949H60.8379L59.6016 14.6978Z" fill="white"/>
<path d="M61.8818 10.1949H62.7373V10.9102H62.8037C62.9164 10.6533 63.1064 10.4379 63.3472 10.2941C63.5881 10.1503 63.8679 10.0852 64.1475 10.1079C64.3666 10.0915 64.5866 10.1245 64.7912 10.2046C64.9958 10.2847 65.1797 10.4098 65.3294 10.5707C65.4791 10.7315 65.5907 10.924 65.6559 11.1338C65.7211 11.3436 65.7382 11.5654 65.7061 11.7827V14.6977H64.8174V12.0059C64.8174 11.2823 64.5029 10.9224 63.8457 10.9224C63.6969 10.9155 63.5484 10.9408 63.4104 10.9966C63.2723 11.0525 63.148 11.1375 63.0459 11.2459C62.9437 11.3543 62.8663 11.4834 62.8187 11.6246C62.7712 11.7657 62.7547 11.9154 62.7705 12.0635V14.6978H61.8818L61.8818 10.1949Z" fill="white"/>
<path d="M67.1221 8.43704H68.0107V14.6978H67.1221V8.43704Z" fill="white"/>
<path d="M69.2463 12.4444C69.2181 12.1484 69.2519 11.8499 69.3458 11.5678C69.4397 11.2857 69.5914 11.0263 69.7914 10.8064C69.9914 10.5864 70.2351 10.4106 70.507 10.2903C70.7788 10.17 71.0728 10.1079 71.3701 10.1079C71.6674 10.1079 71.9614 10.17 72.2333 10.2903C72.5052 10.4106 72.7489 10.5864 72.9489 10.8064C73.1488 11.0263 73.3006 11.2857 73.3945 11.5678C73.4883 11.8499 73.5222 12.1484 73.4939 12.4444C73.5227 12.7406 73.4892 13.0396 73.3956 13.3221C73.302 13.6046 73.1503 13.8645 72.9503 14.0849C72.7503 14.3053 72.5064 14.4814 72.2342 14.6019C71.9621 14.7225 71.6678 14.7847 71.3701 14.7847C71.0725 14.7847 70.7782 14.7225 70.506 14.6019C70.2339 14.4814 69.99 14.3053 69.79 14.0849C69.59 13.8645 69.4383 13.6046 69.3446 13.3221C69.251 13.0396 69.2175 12.7406 69.2463 12.4444ZM72.5793 12.4444C72.5793 11.4683 72.1409 10.8975 71.3713 10.8975C70.5989 10.8975 70.1644 11.4683 70.1644 12.4444C70.1644 13.4283 70.5989 13.9947 71.3713 13.9947C72.1409 13.9947 72.5794 13.4244 72.5794 12.4444H72.5793Z" fill="white"/>
<path d="M74.4297 13.4244C74.4297 12.6138 75.0332 12.1465 76.1045 12.0801L77.3242 12.0098V11.6212C77.3242 11.1456 77.0098 10.877 76.4023 10.877C75.9063 10.877 75.5625 11.0591 75.4639 11.3775H74.6035C74.6943 10.6041 75.4219 10.108 76.4434 10.108C77.5723 10.108 78.209 10.67 78.209 11.6212V14.6978H77.3535V14.065H77.2832C77.1405 14.292 76.9401 14.477 76.7025 14.6013C76.4648 14.7255 76.1985 14.7844 75.9307 14.772C75.7416 14.7917 75.5506 14.7715 75.3698 14.7128C75.1891 14.6541 75.0226 14.5582 74.8812 14.4312C74.7398 14.3042 74.6265 14.149 74.5488 13.9756C74.471 13.8022 74.4304 13.6144 74.4297 13.4244ZM77.3242 13.0396V12.6631L76.2246 12.7335C75.6045 12.775 75.3232 12.9859 75.3232 13.3829C75.3232 13.7881 75.6748 14.024 76.1582 14.024C76.2999 14.0383 76.443 14.024 76.579 13.9819C76.715 13.9398 76.8411 13.8708 76.9499 13.779C77.0587 13.6871 77.1479 13.5743 77.2122 13.4473C77.2765 13.3203 77.3146 13.1816 77.3242 13.0396Z" fill="white"/>
<path d="M79.376 12.4444C79.376 11.0215 80.1074 10.1202 81.2451 10.1202C81.5265 10.1072 81.8058 10.1746 82.0504 10.3145C82.2949 10.4544 82.4945 10.661 82.626 10.9102H82.6924V8.43704H83.5811V14.6978H82.7295V13.9864H82.6592C82.5176 14.2338 82.311 14.4379 82.0617 14.5764C81.8125 14.7148 81.5301 14.7825 81.2451 14.772C80.0996 14.772 79.376 13.8707 79.376 12.4444ZM80.294 12.4444C80.294 13.3995 80.7442 13.9742 81.4971 13.9742C82.2461 13.9742 82.709 13.3912 82.709 12.4483C82.709 11.5098 82.2412 10.9185 81.4971 10.9185C80.749 10.9185 80.2939 11.4971 80.2939 12.4444H80.294Z" fill="white"/>
<path d="M87.2581 12.4444C87.2298 12.1485 87.2636 11.8499 87.3575 11.5678C87.4513 11.2858 87.6031 11.0264 87.803 10.8064C88.003 10.5864 88.2467 10.4107 88.5185 10.2904C88.7904 10.1701 89.0844 10.108 89.3816 10.108C89.6789 10.108 89.9729 10.1701 90.2447 10.2904C90.5166 10.4107 90.7603 10.5864 90.9602 10.8064C91.1602 11.0264 91.3119 11.2858 91.4058 11.5678C91.4996 11.8499 91.5335 12.1485 91.5052 12.4444C91.534 12.7406 91.5006 13.0396 91.407 13.3221C91.3134 13.6046 91.1617 13.8645 90.9617 14.0849C90.7617 14.3053 90.5178 14.4814 90.2457 14.6019C89.9736 14.7225 89.6793 14.7848 89.3816 14.7848C89.084 14.7848 88.7897 14.7225 88.5175 14.6019C88.2454 14.4814 88.0015 14.3053 87.8015 14.0849C87.6015 13.8645 87.4499 13.6046 87.3563 13.3221C87.2627 13.0396 87.2292 12.7406 87.2581 12.4444ZM90.5911 12.4444C90.5911 11.4683 90.1526 10.8975 89.3831 10.8975C88.6106 10.8975 88.1761 11.4683 88.1761 12.4444C88.1761 13.4283 88.6107 13.9947 89.3831 13.9947C90.1526 13.9947 90.5911 13.4244 90.5911 12.4444Z" fill="white"/>
<path d="M92.6973 10.1949H93.5527V10.9102H93.6191C93.7318 10.6533 93.9218 10.4379 94.1627 10.2941C94.4035 10.1503 94.6833 10.0852 94.9629 10.1079C95.182 10.0915 95.402 10.1245 95.6066 10.2046C95.8112 10.2847 95.9951 10.4098 96.1448 10.5707C96.2945 10.7315 96.4061 10.924 96.4713 11.1338C96.5365 11.3436 96.5536 11.5654 96.5215 11.7827V14.6977H95.6328V12.0059C95.6328 11.2823 95.3184 10.9224 94.6611 10.9224C94.5124 10.9155 94.3639 10.9408 94.2258 10.9966C94.0878 11.0525 93.9634 11.1375 93.8613 11.2459C93.7592 11.3543 93.6817 11.4834 93.6342 11.6246C93.5866 11.7657 93.5702 11.9154 93.5859 12.0635V14.6978H92.6973V10.1949Z" fill="white"/>
<path d="M101.544 9.07376V10.2154H102.52V10.9639H101.544V13.2793C101.544 13.751 101.738 13.9576 102.181 13.9576C102.294 13.9572 102.407 13.9503 102.52 13.937V14.6773C102.36 14.7058 102.198 14.721 102.036 14.7227C101.048 14.7227 100.654 14.375 100.654 13.5069V10.9639H99.9395V10.2153H100.654V9.07376H101.544Z" fill="white"/>
<path d="M103.732 8.43704H104.613V10.9185H104.684C104.802 10.6592 104.997 10.4426 105.243 10.2982C105.488 10.1539 105.773 10.0888 106.057 10.1119C106.275 10.1 106.492 10.1364 106.695 10.2184C106.897 10.3005 107.079 10.4261 107.227 10.5865C107.375 10.7468 107.486 10.9379 107.552 11.146C107.617 11.3541 107.636 11.5742 107.607 11.7906V14.6978H106.718V12.0098C106.718 11.2906 106.383 10.9263 105.755 10.9263C105.602 10.9138 105.449 10.9348 105.305 10.9878C105.161 11.0409 105.031 11.1247 104.923 11.2334C104.815 11.3422 104.732 11.4732 104.68 11.6173C104.628 11.7615 104.608 11.9152 104.621 12.0679V14.6978H103.732L103.732 8.43704Z" fill="white"/>
<path d="M112.79 13.482C112.669 13.8935 112.407 14.2495 112.051 14.4876C111.694 14.7258 111.265 14.8309 110.839 14.7847C110.542 14.7925 110.247 14.7357 109.975 14.6182C109.702 14.5007 109.458 14.3252 109.26 14.1041C109.063 13.883 108.915 13.6214 108.828 13.3376C108.742 13.0538 108.718 12.7545 108.758 12.4605C108.719 12.1656 108.743 11.8657 108.83 11.581C108.916 11.2963 109.063 11.0336 109.26 10.8105C109.457 10.5874 109.699 10.4092 109.971 10.288C110.243 10.1668 110.537 10.1054 110.835 10.108C112.088 10.108 112.843 10.964 112.843 12.378V12.688H109.664V12.7378C109.65 12.9031 109.671 13.0694 109.725 13.2262C109.779 13.3829 109.865 13.5266 109.978 13.6481C110.091 13.7695 110.228 13.8661 110.38 13.9315C110.533 13.9969 110.697 14.0297 110.863 14.0278C111.076 14.0534 111.291 14.0151 111.482 13.9179C111.672 13.8207 111.83 13.6689 111.934 13.4819L112.79 13.482ZM109.664 12.0308H111.938C111.949 11.8797 111.929 11.7279 111.878 11.5852C111.827 11.4424 111.747 11.312 111.642 11.2021C111.538 11.0922 111.412 11.0054 111.272 10.9473C111.132 10.8891 110.981 10.8608 110.83 10.8643C110.676 10.8624 110.523 10.8912 110.381 10.9492C110.239 11.0071 110.109 11.093 110.001 11.2017C109.892 11.3104 109.806 11.4398 109.748 11.5822C109.691 11.7246 109.662 11.8771 109.664 12.0308H109.664Z" fill="white"/>
</g>
<defs>
<clipPath id="clip0">
<rect width="135" height="40" fill="white"/>
</clipPath>
</defs>
</svg>
