<svg width="123" height="26" viewBox="0 0 123 26" fill="none" xmlns="http://www.w3.org/2000/svg">
<g clip-path="url(#clip0)">
<path d="M43.5631 14.9752L42.836 17.031H42.7754C42.6542 16.5674 42.432 15.862 42.0684 15.0155L38.1701 5.24029H34.3525V20.8201H36.8774V11.2062C36.8774 10.6015 36.8774 9.91626 36.8572 9.06975C36.837 8.6465 36.7966 8.32402 36.7764 8.08215H36.837C36.9582 8.68681 37.0996 9.13022 37.2006 9.41239L41.8866 20.7798H43.6641L48.3098 9.31161C48.4108 9.0496 48.5118 8.52557 48.6128 8.08215H48.6734C48.6128 9.23099 48.5724 10.2589 48.5522 10.8837V20.7597H51.2386V5.19998H47.5625L43.5631 14.9752ZM53.7837 9.59378H56.4095V20.7597H53.7837V9.59378ZM55.1168 4.8775C54.6724 4.8775 54.3088 5.03874 54.0058 5.32091C53.7029 5.60309 53.5413 5.96588 53.5413 6.40929C53.5413 6.83254 53.7029 7.19533 54.0058 7.4775C54.3088 7.75967 54.6724 7.90076 55.1168 7.90076C55.5611 7.90076 55.9449 7.73952 56.2277 7.4775C56.5307 7.19533 56.6923 6.83254 56.6923 6.40929C56.6923 5.98603 56.5307 5.62324 56.2277 5.32091C55.9651 5.03874 55.5813 4.8775 55.1168 4.8775ZM65.7211 9.49301C65.2363 9.39223 64.7313 9.33177 64.2466 9.33177C63.0549 9.33177 61.9641 9.59378 61.0552 10.1178C60.1462 10.6418 59.4191 11.3674 58.9545 12.2744C58.4698 13.2015 58.2274 14.2698 58.2274 15.4992C58.2274 16.5674 58.4698 17.5147 58.9343 18.3814C59.3989 19.2279 60.0453 19.9132 60.9138 20.3767C61.7419 20.8403 62.7115 21.0822 63.8022 21.0822C65.0545 21.0822 66.1251 20.8201 66.9734 20.3364L66.9936 20.3163V17.8977L66.8926 17.9783C66.5088 18.2605 66.0645 18.5023 65.6201 18.6434C65.1555 18.8046 64.7313 18.8853 64.3678 18.8853C63.3174 18.8853 62.4893 18.5829 61.9035 17.9178C61.2976 17.2729 60.9946 16.386 60.9946 15.2775C60.9946 14.1287 61.2976 13.2217 61.9237 12.5566C62.5499 11.8915 63.378 11.5488 64.388 11.5488C65.2363 11.5488 66.1049 11.831 66.8926 12.3953L66.9936 12.476V9.91626L66.9734 9.89611C66.63 9.75502 66.2462 9.59378 65.7211 9.49301ZM74.3863 9.41239C73.7399 9.41239 73.134 9.61394 72.6088 10.0372C72.1645 10.4 71.8615 10.924 71.5989 11.5488H71.5787V9.59378H68.9529V20.7597H71.5787V15.0558C71.5787 14.0884 71.7807 13.2822 72.2251 12.6977C72.6694 12.093 73.235 11.7907 73.9217 11.7907C74.1641 11.7907 74.4065 11.8511 74.7095 11.8915C74.9923 11.9721 75.1943 12.0527 75.3356 12.1535L75.4366 12.2341V9.61394L75.376 9.59378C75.1943 9.47285 74.8307 9.41239 74.3863 9.41239ZM81.5366 9.35192C79.6986 9.35192 78.2241 9.89611 77.1939 10.9643C76.1436 12.0325 75.6386 13.5039 75.6386 15.3581C75.6386 17.0915 76.1638 18.5023 77.1737 19.5302C78.1837 20.538 79.5572 21.062 81.2741 21.062C83.0717 21.062 84.5058 20.5178 85.536 19.4294C86.5863 18.3411 87.0913 16.8899 87.0913 15.0961C87.0913 13.3225 86.6065 11.9116 85.6168 10.8837C84.6674 9.8558 83.2737 9.35192 81.5366 9.35192ZM83.6373 17.938C83.1525 18.5628 82.385 18.8651 81.4356 18.8651C80.4863 18.8651 79.7188 18.5628 79.1734 17.8977C78.628 17.2729 78.3654 16.3659 78.3654 15.217C78.3654 14.0279 78.6482 13.1209 79.1734 12.476C79.7188 11.831 80.4661 11.5085 81.4154 11.5085C82.3446 11.5085 83.0717 11.8108 83.5969 12.4356C84.1221 13.0604 84.4049 13.9674 84.4049 15.1566C84.3645 16.3659 84.1423 17.3132 83.6373 17.938ZM92.9489 14.2294C92.1207 13.8868 91.5956 13.6248 91.3532 13.4031C91.1512 13.2015 91.0502 12.9194 91.0502 12.5566C91.0502 12.2542 91.1714 11.9519 91.4744 11.7504C91.7774 11.5488 92.1207 11.448 92.6257 11.448C93.0701 11.448 93.5346 11.5287 93.979 11.6496C94.4234 11.7705 94.8274 11.9519 95.1505 12.1938L95.2515 12.2744V9.81549L95.1909 9.79533C94.888 9.6744 94.484 9.55347 93.9992 9.4527C93.5145 9.37208 93.0701 9.33177 92.7065 9.33177C91.4542 9.33177 90.4241 9.63409 89.6161 10.2992C88.8082 10.924 88.4244 11.7705 88.4244 12.7581C88.4244 13.2822 88.5052 13.7457 88.687 14.1287C88.8688 14.5116 89.1313 14.8744 89.4949 15.1767C89.8585 15.4589 90.3837 15.7814 91.1108 16.0837C91.7168 16.3457 92.1813 16.5473 92.4641 16.7085C92.7469 16.8698 92.9287 17.0511 93.0701 17.1922C93.1711 17.3535 93.2317 17.555 93.2317 17.817C93.2317 18.5628 92.6661 18.9256 91.5148 18.9256C91.0704 18.9256 90.6058 18.8449 90.0605 18.6636C89.5151 18.4822 89.0101 18.2201 88.586 17.9178L88.485 17.8372V20.3969L88.5456 20.417C88.9294 20.5984 89.3939 20.7194 89.9595 20.8605C90.525 20.9612 91.03 21.0418 91.4744 21.0418C92.8277 21.0418 93.9386 20.7395 94.7264 20.0744C95.5343 19.4294 95.9585 18.6031 95.9585 17.5349C95.9585 16.7891 95.7565 16.124 95.3121 15.6201C94.7264 15.1364 93.9992 14.6325 92.9489 14.2294ZM102.887 9.35192C101.049 9.35192 99.5741 9.89611 98.5439 10.9643C97.5138 12.0325 96.9886 13.5039 96.9886 15.3581C96.9886 17.0915 97.5138 18.5023 98.5237 19.5302C99.5337 20.538 100.907 21.062 102.624 21.062C104.422 21.062 105.856 20.5178 106.886 19.4294C107.936 18.3411 108.441 16.8899 108.441 15.0961C108.441 13.3225 107.956 11.9116 106.967 10.8837C106.017 9.8558 104.624 9.35192 102.887 9.35192ZM104.967 17.938C104.482 18.5628 103.715 18.8651 102.765 18.8651C101.796 18.8651 101.049 18.5628 100.503 17.8977C99.9578 17.2729 99.6952 16.3659 99.6952 15.217C99.6952 14.0279 99.978 13.1209 100.503 12.476C101.049 11.831 101.796 11.5085 102.745 11.5085C103.654 11.5085 104.402 11.8108 104.927 12.4356C105.452 13.0604 105.735 13.9674 105.735 15.1566C105.735 16.3659 105.472 17.3132 104.967 17.938ZM122.479 11.7504V9.59378H119.833V6.28836L119.753 6.30851L117.248 7.05425L117.187 7.0744V9.59378H113.228V8.18293C113.228 7.53797 113.39 7.03409 113.673 6.71161C113.956 6.38913 114.38 6.22789 114.905 6.22789C115.268 6.22789 115.652 6.30851 116.076 6.48991L116.177 6.55037V4.27285L116.117 4.2527C115.753 4.13177 115.268 4.05115 114.642 4.05115C113.855 4.05115 113.168 4.23254 112.542 4.53487C111.915 4.8775 111.451 5.34107 111.107 5.96588C110.764 6.57053 110.582 7.2558 110.582 8.04185V9.59378H108.744V11.7302H110.582V20.7597H113.228V11.7504H117.187V17.4946C117.187 19.8527 118.298 21.0418 120.52 21.0418C120.884 21.0418 121.267 20.9814 121.631 20.9209C122.015 20.8403 122.298 20.7395 122.459 20.6589L122.479 20.6387V18.4822L122.378 18.5628C122.217 18.6636 122.075 18.7442 121.833 18.8046C121.631 18.8651 121.449 18.8853 121.308 18.8853C120.783 18.8853 120.419 18.7643 120.157 18.462C119.914 18.1798 119.793 17.7163 119.793 17.031V11.7504H122.479Z" fill="#737373"/>
<path d="M0.5 0H12.8818V12.355H0.5V0Z" fill="#F25022"/>
<path d="M14.1748 0H26.5566V12.355H14.1748V0Z" fill="#7FBA00"/>
<path d="M0.5 13.645H12.8818V26H0.5V13.645Z" fill="#00A4EF"/>
<path d="M14.1748 13.645H26.5566V26H14.1748V13.645Z" fill="#FFB900"/>
</g>
<defs>
<clipPath id="clip0">
<rect width="122" height="26" fill="white" transform="translate(0.5)"/>
</clipPath>
</defs>
</svg>
