<svg width="85" height="24" viewBox="0 0 85 24" fill="none" xmlns="http://www.w3.org/2000/svg">
<g clip-path="url(#clip0)">
<path d="M9.59675 3.97278V10.7425H3.42846V3.97278H0.5V20.1328H3.42846V13.5829H9.59675V20.1328H12.5252V3.97278H9.59675Z" fill="#33475B"/>
<path d="M21.8976 14.9091C21.8976 15.5567 21.6424 16.1779 21.188 16.6358C20.7337 17.0938 20.1174 17.351 19.4749 17.351C18.8324 17.351 18.2162 17.0938 17.7618 16.6358C17.3075 16.1779 17.0522 15.5567 17.0522 14.9091V7.98749H14.2744V14.9091C14.2744 16.298 14.8218 17.63 15.7961 18.612C16.7705 19.5941 18.092 20.1459 19.4699 20.1459C20.8478 20.1459 22.1693 19.5941 23.1436 18.612C24.118 17.63 24.6654 16.298 24.6654 14.9091V7.98749H21.8976V14.9091Z" fill="#33475B"/>
<path d="M42.4787 8.70047C42.4787 7.28173 43.4099 6.83195 44.4301 6.83195C45.2522 6.83195 46.3384 7.4625 47.0486 8.22755L48.868 6.0669C47.9597 4.82894 46.1174 3.97278 44.6094 3.97278C41.5963 3.97278 39.4168 5.75163 39.4168 8.70047C39.4168 14.1715 46.0514 12.4361 46.0514 15.4977C46.0514 16.4421 45.1417 17.2765 44.1001 17.2765C42.4572 17.2765 41.9249 16.4667 41.1702 15.6105L39.1514 17.7263C40.4427 19.3244 42.0354 20.1357 43.9437 20.1357C46.8061 20.1357 49.109 18.3352 49.109 15.5208C49.109 9.44672 42.4744 11.334 42.4744 8.70047" fill="#33475B"/>
<path d="M83.5229 17.5513C81.8815 17.5513 81.4152 16.8355 81.4152 15.7392V10.8872H83.9663V8.42859H81.4152V5.18472L78.5986 6.45884V16.3423C78.5986 18.8703 80.329 20.1444 82.7022 20.1444C83.0744 20.1512 83.4464 20.1212 83.8128 20.0547L84.5 17.5051C84.1901 17.5268 83.8343 17.5484 83.5229 17.5484" fill="#33475B"/>
<path d="M32.4702 8.06847C31.0942 8.06847 30.1343 8.47051 29.2059 9.38886V4.06967H26.4238V13.9285C26.4238 17.6193 29.0711 20.1473 32.0454 20.1473C35.3455 20.1473 38.2482 17.5745 38.2482 14.1093C38.2482 10.6876 35.5765 8.06991 32.4702 8.06991V8.06847ZM32.4529 17.3257C31.8286 17.3257 31.2183 17.1391 30.6992 16.7895C30.1801 16.4399 29.7755 15.943 29.5366 15.3616C29.2977 14.7802 29.2352 14.1405 29.357 13.5233C29.4788 12.9061 29.7794 12.3392 30.2209 11.8942C30.6623 11.4493 31.2248 11.1463 31.8371 11.0235C32.4494 10.9007 33.0841 10.9637 33.6609 11.2045C34.2377 11.4454 34.7307 11.8532 35.0776 12.3764C35.4244 12.8996 35.6095 13.5148 35.6095 14.144C35.6095 14.9879 35.277 15.7971 34.685 16.3938C34.093 16.9905 33.2901 17.3257 32.4529 17.3257Z" fill="#33475B"/>
<path d="M62.6788 13.9618C62.6788 10.4909 59.7819 7.92386 56.4761 7.92386C53.5017 7.92386 50.8545 10.4518 50.8545 14.1426V24.0072H53.6366V18.6808C54.5635 19.5977 55.5248 20.0012 56.8994 20.0012C60.0058 20.0012 62.6774 17.385 62.6774 13.9618H62.6788ZM60.0445 13.9271C60.0445 14.5564 59.8594 15.1715 59.5125 15.6948C59.1657 16.218 58.6727 16.6258 58.0959 16.8666C57.5191 17.1074 56.8844 17.1704 56.2721 17.0477C55.6598 16.9249 55.0973 16.6219 54.6558 16.1769C54.2144 15.7319 53.9138 15.165 53.792 14.5478C53.6702 13.9306 53.7327 13.2909 53.9716 12.7095C54.2105 12.1282 54.6151 11.6312 55.1342 11.2816C55.6533 10.932 56.2636 10.7454 56.8879 10.7454C57.7251 10.7454 58.528 11.0806 59.1199 11.6773C59.7119 12.274 60.0445 13.0833 60.0445 13.9271Z" fill="#33475B"/>
<path d="M71.6666 7.7879V4.97066C72.036 4.7967 72.3488 4.52057 72.5685 4.17442C72.7882 3.82826 72.9059 3.42631 72.9077 3.01538V2.9503C72.9077 2.37496 72.681 1.82318 72.2774 1.41635C71.8738 1.00952 71.3263 0.780969 70.7555 0.780969H70.691C70.1202 0.780969 69.5727 1.00952 69.1691 1.41635C68.7655 1.82318 68.5387 2.37496 68.5387 2.9503V3.01538C68.5406 3.42631 68.6583 3.82826 68.878 4.17442C69.0977 4.52057 69.4105 4.7967 69.7798 4.97066V7.7879C68.7182 7.9516 67.7184 8.39513 66.8815 9.07359L59.2167 3.05587C59.271 2.85743 59.2999 2.65283 59.3028 2.44701C59.3037 1.96355 59.1622 1.4907 58.8964 1.08826C58.6306 0.685821 58.2524 0.371877 57.8096 0.186138C57.3667 0.000399539 56.8792 -0.0487899 56.4086 0.0447919C55.938 0.138374 55.5056 0.370522 55.1659 0.711874C54.8262 1.05323 54.5946 1.48845 54.5004 1.96248C54.4061 2.43652 54.4535 2.92808 54.6365 3.37499C54.8194 3.82189 55.1298 4.20407 55.5283 4.47317C55.9267 4.74227 56.3954 4.88621 56.8751 4.88678C57.2945 4.88489 57.7061 4.7722 58.0689 4.55994L65.6174 10.4793C64.9392 11.5119 64.5853 12.7265 64.6019 13.9647C64.6186 15.203 65.0049 16.4075 65.7107 17.4212L63.415 19.7351C63.2293 19.6754 63.0359 19.6437 62.8411 19.6411C62.4473 19.6414 62.0625 19.7593 61.7352 19.98C61.4079 20.2007 61.1529 20.5142 61.0023 20.8809C60.8517 21.2477 60.8124 21.6512 60.8893 22.0404C60.9662 22.4297 61.1558 22.7872 61.4343 23.0679C61.7127 23.3485 62.0674 23.5397 62.4536 23.6172C62.8398 23.6947 63.2401 23.655 63.604 23.5033C63.9678 23.3515 64.2789 23.0945 64.4978 22.7646C64.7167 22.4347 64.8337 22.0468 64.834 21.6499C64.8316 21.4535 64.8001 21.2585 64.7408 21.0714L67.0121 18.7821C67.7527 19.3565 68.614 19.7525 69.5298 19.9397C70.4457 20.1269 71.392 20.1003 72.2961 19.862C73.2002 19.6236 74.0383 19.1799 74.746 18.5647C75.4537 17.9496 76.0124 17.1793 76.3792 16.3129C76.746 15.4466 76.9112 14.5071 76.8621 13.5664C76.8131 12.6257 76.5511 11.7089 76.0962 10.886C75.6414 10.0632 75.0057 9.35617 74.2379 8.81916C73.4701 8.28216 72.5906 7.92939 71.6666 7.7879ZM70.7254 17.0524C70.1041 17.0518 69.4969 16.8656 68.9806 16.5173C68.4642 16.169 68.0619 15.6742 67.8245 15.0955C67.5871 14.5168 67.5252 13.8802 67.6466 13.266C67.7681 12.6519 68.0674 12.0878 68.5069 11.6451C68.9463 11.2024 69.506 10.9009 70.1154 10.7788C70.7248 10.6566 71.3564 10.7193 71.9304 10.9589C72.5044 11.1985 72.9951 11.6042 73.3404 12.1248C73.6858 12.6454 73.8702 13.2575 73.8705 13.8837C73.8705 14.7237 73.5395 15.5293 72.9502 16.1233C72.3609 16.7172 71.5616 17.0509 70.7283 17.0509" fill="#FF7A59"/>
</g>
<defs>
<clipPath id="clip0">
<rect width="84" height="24" fill="white" transform="translate(0.5)"/>
</clipPath>
</defs>
</svg>
