<svg width="105" height="28" viewBox="0 0 105 28" fill="none" xmlns="http://www.w3.org/2000/svg">
<path d="M0.575195 28H10.0683C14.5698 28 18.219 24.3508 18.219 19.8493H8.72588C4.22438 19.8493 0.575195 23.4985 0.575195 28Z" fill="#F22BB2"/>
<path d="M1 8.15069V20.137C5.5015 20.137 9.15069 16.4878 9.15069 11.9863V0C4.64919 0 1 3.64919 1 8.15069Z" fill="#8C30F5"/>
<path d="M27.4251 0H17.9319C13.4304 0 9.78125 3.64919 9.78125 8.15068H19.2744C23.7759 8.15068 27.4251 4.5015 27.4251 0Z" fill="#FE9A22"/>
<path d="M27.4251 19.3699V7.38358C22.9236 7.38358 19.2744 11.0328 19.2744 15.5343V27.5206C23.7759 27.5206 27.4251 23.8714 27.4251 19.3699Z" fill="#2EC5CE"/>
<path d="M40.4002 17.92V6.99999H37.2002V21H45.4002V17.92H40.4002Z" fill="#0B0D17"/>
<path d="M53.8719 11V11.94C53.2119 11.18 52.2319 10.72 50.8919 10.72C48.2719 10.72 46.1119 13.02 46.1119 16C46.1119 18.98 48.2719 21.28 50.8919 21.28C52.2319 21.28 53.2119 20.82 53.8719 20.06V21H56.8719V11H53.8719ZM51.4919 18.44C50.1119 18.44 49.1119 17.5 49.1119 16C49.1119 14.5 50.1119 13.56 51.4919 13.56C52.8719 13.56 53.8719 14.5 53.8719 16C53.8719 17.5 52.8719 18.44 51.4919 18.44Z" fill="#0B0D17"/>
<path d="M64.9329 10.72C63.6129 10.72 62.6129 11.2 62.0729 11.94V11H59.0729V21H62.0729V15.54C62.0729 14.12 62.8329 13.48 63.9329 13.48C64.8929 13.48 65.6729 14.06 65.6729 15.3V21H68.6729V14.86C68.6729 12.16 66.9529 10.72 64.9329 10.72Z" fill="#0B0D17"/>
<path d="M77.993 6.99999V11.94C77.333 11.18 76.353 10.72 75.013 10.72C72.393 10.72 70.233 13.02 70.233 16C70.233 18.98 72.393 21.28 75.013 21.28C76.353 21.28 77.333 20.82 77.993 20.06V21H80.993V6.99999H77.993ZM75.613 18.44C74.233 18.44 73.233 17.5 73.233 16C73.233 14.5 74.233 13.56 75.613 13.56C76.993 13.56 77.993 14.5 77.993 16C77.993 17.5 76.993 18.44 75.613 18.44Z" fill="#0B0D17"/>
<path d="M84.6939 10.12C85.6739 10.12 86.4939 9.29999 86.4939 8.31999C86.4939 7.33999 85.6739 6.51999 84.6939 6.51999C83.7139 6.51999 82.8939 7.33999 82.8939 8.31999C82.8939 9.29999 83.7139 10.12 84.6939 10.12ZM83.1939 21H86.1939V11H83.1939V21Z" fill="#0B0D17"/>
<path d="M93.8893 9.59999V6.71999C90.5693 6.51999 89.0293 8.19999 89.0293 11H87.6893V13.88H89.0293V21H92.0293V13.88H93.8893V11H92.0293C92.0293 9.83999 92.7693 9.49999 93.8893 9.59999Z" fill="#0B0D17"/>
<path d="M101.681 11L99.8014 17.12L97.5814 11H94.2814L98.2614 20.54C97.8214 21.76 97.1614 22.2 95.7614 22.2V25C98.5614 25.14 100.341 23.88 101.461 20.7L104.881 11H101.681Z" fill="#0B0D17"/>
</svg>
