<svg width="130" height="40" viewBox="0 0 130 40" fill="none" xmlns="http://www.w3.org/2000/svg">
<g clip-path="url(#clip0)">
<path d="M37.2667 28.3497C37.0628 27.8622 36.8716 27.3497 36.6677 26.9122L35.7245 24.8247L35.6863 24.7872C32.8824 18.7872 29.8873 12.6872 26.7138 6.68719L26.5863 6.43719C26.2677 5.84969 25.9491 5.19969 25.6177 4.59969C25.2098 3.88719 24.8147 3.12469 24.1647 2.39969C23.5311 1.6411 22.7338 1.02992 21.8301 0.610255C20.9265 0.190588 19.9391 -0.0270996 18.9392 -0.0270996C17.9394 -0.0270996 16.952 0.190588 16.0484 0.610255C15.1447 1.02992 14.3473 1.6411 13.7138 2.39969C13.1147 3.12469 12.6687 3.88719 12.2608 4.59969C11.9422 5.24969 11.6236 5.88719 11.2922 6.47469L11.1647 6.72469C8.04219 12.7247 4.99611 18.8247 2.19219 24.8247L2.11572 24.8997C1.83532 25.5497 1.50395 26.2247 1.18532 26.9497C0.981402 27.3872 0.77748 27.8622 0.573559 28.3872C0.0230119 29.7619 -0.152795 31.2536 0.0634643 32.7153C0.279724 34.177 0.880585 35.5581 1.80683 36.7227C2.73308 37.8873 3.95274 38.795 5.34561 39.3565C6.73848 39.918 8.25649 40.1138 9.75003 39.9247C11.1819 39.7398 12.5607 39.2721 13.803 38.5497C15.4598 37.6372 17.053 36.3122 18.8373 34.3997C20.6216 36.3122 22.253 37.6372 23.8716 38.5622C25.4282 39.4582 27.1909 39.9528 28.9951 39.9997C31.0845 40.0082 33.1065 39.275 34.6877 37.9356C36.2689 36.5961 37.3027 34.7408 37.5981 32.7122C37.9394 31.2544 37.8239 29.7295 37.2667 28.3372V28.3497ZM18.9647 30.4247C16.7726 27.6747 15.3451 25.1497 14.8608 22.9872C14.6602 22.1859 14.6169 21.3544 14.7334 20.5372C14.8226 19.8997 15.0647 19.3372 15.3961 18.8622C16.1608 17.7747 17.4991 17.0997 18.9647 17.0997C19.6608 17.0788 20.3512 17.2278 20.9741 17.5333C21.597 17.8387 22.1327 18.291 22.5334 18.8497C22.8647 19.3497 23.1069 19.8997 23.1834 20.5372C23.3108 21.2622 23.2598 22.0997 23.0559 22.9872C22.5716 25.1122 21.1441 27.6622 18.9647 30.4247ZM35.202 32.2747C35.0572 33.3046 34.6397 34.2794 33.9912 35.1018C33.3428 35.9242 32.4859 36.5657 31.5059 36.9622C30.5373 37.3622 29.4667 37.4747 28.4216 37.3622C27.402 37.2372 26.3824 36.9122 25.3373 36.3122C23.602 35.2603 22.0417 33.9534 20.7108 32.4372C23.3873 29.1872 25.0059 26.2247 25.6177 23.5872C25.9108 22.3372 25.9491 21.2122 25.8216 20.1747C25.6624 19.1913 25.2886 18.2532 24.7255 17.4247C24.0827 16.5263 23.2246 15.7965 22.2267 15.2995C21.2289 14.8026 20.1219 14.5537 19.003 14.5747C16.6451 14.5747 14.5422 15.6497 13.2677 17.4122C12.6939 18.2386 12.3231 19.1842 12.1843 20.1747C12.0187 21.2247 12.0569 22.3872 12.3883 23.5872C13 26.2247 14.6569 29.2247 17.2951 32.4622C15.9868 34.0074 14.4228 35.3258 12.6687 36.3622C11.6108 36.9622 10.604 37.2747 9.58434 37.3997C7.99871 37.5989 6.39698 37.1762 5.12733 36.2236C3.85768 35.2709 3.02272 33.8653 2.80395 32.3122C2.6765 31.3122 2.76572 30.3122 3.17356 29.1872C3.30101 28.7872 3.49219 28.3872 3.69611 27.9122C3.9765 27.2622 4.30787 26.5872 4.6265 25.9122L4.67748 25.8247C7.43042 19.8622 10.4383 13.7747 13.5608 7.81219L13.6883 7.56219C14.0069 6.96219 14.3255 6.32469 14.6569 5.72469C14.9883 5.08719 15.3451 4.47469 15.804 3.97469C16.2011 3.50971 16.6974 3.13578 17.2578 2.87921C17.8182 2.62264 18.4291 2.48967 19.0476 2.48967C19.666 2.48967 20.277 2.62264 20.8374 2.87921C21.3978 3.13578 21.8941 3.50971 22.2912 3.97469C22.7373 4.47469 23.1069 5.08719 23.4383 5.72469C23.7569 6.32469 24.0755 6.97469 24.4069 7.56219L24.5343 7.81219C27.6441 13.7747 30.652 19.8622 33.4559 25.8247L33.4942 25.8622C33.8255 26.5122 34.1059 27.2372 34.4245 27.8622C34.6285 28.3497 34.8324 28.7372 34.9598 29.1497C35.202 30.2747 35.3294 31.2747 35.202 32.2747ZM52.9432 30.1497C51.9828 30.1635 51.0315 29.965 50.16 29.569C49.2885 29.173 48.5191 28.5896 47.9089 27.8622C46.5376 26.3121 45.8098 24.3135 45.8696 22.2622C45.8487 20.1662 46.5999 18.1332 47.9853 16.5372C48.6262 15.8005 49.4239 15.2105 50.3223 14.8088C51.2207 14.4071 52.198 14.2034 53.1853 14.2122C54.1144 14.1872 55.0346 14.3944 55.8595 14.8143C56.6844 15.2341 57.387 15.8528 57.901 16.6122L58.0285 14.6497H61.75V29.7497H58.0157L57.8883 27.5497C57.3583 28.3605 56.6258 29.025 55.7603 29.4801C54.8948 29.9351 53.925 30.1656 52.9432 30.1497ZM53.9118 26.5497C54.651 26.5497 55.301 26.3497 55.9128 25.9872C56.4736 25.5872 56.9324 25.0622 57.2892 24.4247C57.6079 23.7872 57.7736 23.0247 57.7736 22.1747C57.8232 21.4364 57.6767 20.6982 57.3483 20.0321C57.0199 19.366 56.5209 18.7949 55.9 18.3747C55.3035 18.0101 54.6147 17.8169 53.9118 17.8169C53.2089 17.8169 52.5201 18.0101 51.9236 18.3747C51.3628 18.7747 50.904 19.2997 50.5471 19.9372C50.2101 20.6402 50.0443 21.4105 50.0628 22.1872C50.0131 22.9254 50.1596 23.6637 50.488 24.3298C50.8164 24.9959 51.3154 25.5669 51.9363 25.9872C52.5353 26.3497 53.1853 26.5497 53.9118 26.5497ZM68.1226 10.5747C68.1226 11.0122 68.0461 11.4122 67.8422 11.7372C67.6383 12.0497 67.3579 12.3372 66.9883 12.5372C66.6187 12.7372 66.2236 12.8122 65.8157 12.8122C65.4079 12.8122 65 12.7372 64.6304 12.5372C64.2809 12.3463 63.9869 12.0709 63.7765 11.7372C63.5791 11.3811 63.4823 10.9798 63.4961 10.5747C63.4961 10.1247 63.5853 9.72469 63.7765 9.41219C63.9804 9.03719 64.2736 8.81219 64.6304 8.61219C65 8.41219 65.3951 8.32469 65.8157 8.32469C66.2214 8.31552 66.6226 8.40975 66.98 8.59818C67.3374 8.78661 67.6389 9.06278 67.8549 9.39969C68.0404 9.76412 68.1323 10.1675 68.1226 10.5747ZM63.7892 29.6997V14.6247H67.8422V29.7247H63.7765L63.7892 29.6997ZM78.6755 18.5747V18.6247C78.4843 18.5372 78.2294 18.4997 78.0383 18.4622C77.7834 18.4122 77.5794 18.4122 77.3373 18.4122C76.203 18.4122 75.3491 18.7372 74.7883 19.4122C74.1765 20.0997 73.8961 21.0622 73.8961 22.2997V29.7122H69.8304V14.6122H73.5647L73.6922 16.8997C74.1 16.0997 74.5844 15.4997 75.2726 15.0497C75.9572 14.6125 76.7631 14.3941 77.5794 14.4247C77.8726 14.4247 78.153 14.4497 78.3951 14.4997C78.5226 14.5372 78.5991 14.5372 78.6755 14.5747V18.5747ZM80.3069 29.6997V8.42469H84.3598V16.5497C84.9334 15.8247 85.5834 15.2622 86.3991 14.8247C87.6904 14.2037 89.1574 14.0276 90.5633 14.3247C91.9692 14.6218 93.2321 15.3748 94.1481 16.4622C95.5224 18.0154 96.2504 20.0191 96.1873 22.0747C96.2083 24.1707 95.457 26.2036 94.0716 27.7997C93.4308 28.5364 92.6331 29.1264 91.7346 29.5281C90.8362 29.9298 89.8589 30.1334 88.8716 30.1247C87.9426 30.1496 87.0223 29.9424 86.1974 29.5226C85.3725 29.1028 84.67 28.4841 84.1559 27.7247L84.0285 29.6872L80.3069 29.7247V29.6997ZM88.1451 26.5497C88.8716 26.5497 89.5216 26.3497 90.1334 25.9872C90.6942 25.5872 91.153 25.0622 91.5098 24.4247C91.8412 23.7872 91.9942 23.0247 91.9942 22.1747C91.9942 21.3372 91.8412 20.5747 91.5098 19.9372C91.1751 19.3225 90.7049 18.7887 90.1334 18.3747C89.5368 18.0101 88.848 17.8169 88.1451 17.8169C87.4423 17.8169 86.7535 18.0101 86.1569 18.3747C85.5834 18.7747 85.1373 19.2997 84.7677 19.9372C84.4306 20.6402 84.2648 21.4105 84.2834 22.1872C84.2337 22.9254 84.3802 23.6637 84.7086 24.3298C85.037 24.9959 85.536 25.5669 86.1569 25.9872C86.7559 26.3497 87.4059 26.5497 88.1451 26.5497ZM97.7167 29.7122V14.6122H101.451L101.578 16.5747C102.048 15.8224 102.713 15.2068 103.507 14.7914C104.3 14.3761 105.192 14.1761 106.09 14.2122C107.118 14.1948 108.127 14.4748 108.993 15.0173C109.859 15.5598 110.543 16.3406 110.959 17.2622C111.405 18.2122 111.647 19.3872 111.647 20.6997V29.7497H107.581V21.2247C107.581 20.1747 107.339 19.3497 106.855 18.7372C106.371 18.1372 105.708 17.8122 104.867 17.8122C104.255 17.8122 103.72 17.9372 103.248 18.2122C102.802 18.4997 102.432 18.8622 102.152 19.3747C101.869 19.8927 101.728 20.4744 101.744 21.0622V29.7122H97.7167ZM113.674 29.7122V8.41219H117.739V16.5372C118.29 15.8081 119.006 15.215 119.832 14.8049C120.657 14.3948 121.568 14.179 122.493 14.1747C123.454 14.1609 124.405 14.3594 125.276 14.7554C126.148 15.1514 126.917 15.7347 127.527 16.4622C128.892 18.0153 129.615 20.0129 129.554 22.0622C129.576 24.1584 128.825 26.1917 127.438 27.7872C126.797 28.5239 126 29.1139 125.101 29.5156C124.203 29.9173 123.226 30.1209 122.238 30.1122C121.309 30.1371 120.389 29.9299 119.564 29.5101C118.739 29.0903 118.037 28.4716 117.523 27.7122L117.408 29.6747L113.674 29.7122ZM121.55 26.5497C122.289 26.5497 122.939 26.3497 123.538 25.9872C124.112 25.5872 124.558 25.0622 124.927 24.4247C125.246 23.7872 125.412 23.0247 125.412 22.1747C125.461 21.4364 125.315 20.6982 124.987 20.0321C124.658 19.366 124.159 18.7949 123.538 18.3747C122.942 18.0101 122.253 17.8169 121.55 17.8169C120.847 17.8169 120.158 18.0101 119.562 18.3747C119.001 18.7747 118.542 19.2997 118.185 19.9372C117.83 20.634 117.663 21.4088 117.701 22.1872C117.651 22.9254 117.798 23.6637 118.126 24.3298C118.455 24.9959 118.954 25.5669 119.575 25.9872C120.174 26.3497 120.785 26.5497 121.55 26.5497Z" fill="#FF385C"/>
</g>
<defs>
<clipPath id="clip0">
<rect width="130" height="40" fill="white"/>
</clipPath>
</defs>
</svg>
