<svg width="32" height="32" viewBox="0 0 32 32" fill="none" xmlns="http://www.w3.org/2000/svg">
<path d="M30.6663 7.99998V2.66665C30.6663 2.31302 30.5259 1.97388 30.2758 1.72384C30.0258 1.47379 29.6866 1.33331 29.333 1.33331H2.66634C2.31272 1.33331 1.97358 1.47379 1.72353 1.72384C1.47348 1.97388 1.33301 2.31302 1.33301 2.66665V7.99998H30.6663Z" fill="#2EC5CE"/>
<path d="M1.33301 10.6666V29.3333C1.33301 29.6869 1.47348 30.0261 1.72353 30.2761C1.97358 30.5262 2.31272 30.6666 2.66634 30.6666H9.33301V10.6666H1.33301Z" fill="#D6B1FF"/>
<path d="M12 30.6666H29.3333C29.687 30.6666 30.0261 30.5262 30.2761 30.2761C30.5262 30.0261 30.6667 29.6869 30.6667 29.3333V10.6666H12V30.6666Z" fill="#8C30F5"/>
</svg>
