<svg width="32" height="32" viewBox="0 0 32 32" fill="none" xmlns="http://www.w3.org/2000/svg">
<path d="M15.2083 0.175992L0.781647 6.91599C0.684087 6.96073 0.601438 7.03256 0.543541 7.12294C0.485644 7.21331 0.454938 7.31842 0.455079 7.42575C0.455219 7.53308 0.486199 7.63811 0.544332 7.72833C0.602466 7.81856 0.685302 7.89017 0.78298 7.93466L15.323 14.6253C15.7523 14.8227 16.2483 14.8227 16.6776 14.6253L31.2176 7.93466C31.3154 7.8903 31.3983 7.81879 31.4566 7.72865C31.5148 7.6385 31.5459 7.53351 31.5462 7.42618C31.5465 7.31885 31.5159 7.2137 31.4581 7.12325C31.4004 7.0328 31.3178 6.96086 31.2203 6.91599L16.7923 0.175992C16.5444 0.0601174 16.274 6.10352e-05 16.0003 6.10352e-05C15.7266 6.10352e-05 15.4563 0.0601174 15.2083 0.175992Z" fill="#8C30F5"/>
<path opacity="0.64" d="M31.22 15.568L28.24 14.176C28.0266 14.0763 27.794 14.0243 27.5584 14.0236C27.3229 14.0229 27.09 14.0735 26.876 14.172L16.6773 18.8653C16.4649 18.963 16.2338 19.0136 16 19.0136C15.7662 19.0136 15.5351 18.963 15.3227 18.8653L5.12267 14.172C4.90885 14.0737 4.67621 14.0232 4.4409 14.0239C4.20559 14.0246 3.97324 14.0765 3.76001 14.176L0.780006 15.568C0.682503 15.6128 0.599949 15.6848 0.54217 15.7752C0.48439 15.8657 0.453823 15.9708 0.454103 16.0782C0.454384 16.1855 0.485502 16.2905 0.543754 16.3806C0.602006 16.4708 0.684937 16.5423 0.782674 16.5866L15.3227 23.276C15.535 23.3742 15.7661 23.4251 16 23.4251C16.2339 23.4251 16.465 23.3742 16.6773 23.276L31.2173 16.5866C31.3151 16.5423 31.398 16.4708 31.4563 16.3806C31.5145 16.2905 31.5456 16.1855 31.5459 16.0782C31.5462 15.9708 31.5156 15.8657 31.4578 15.7752C31.4001 15.6848 31.3175 15.6128 31.22 15.568Z" fill="#D6B1FF"/>
<path d="M31.2195 24.144L28.2395 22.752C28.0261 22.6522 27.7935 22.6002 27.558 22.5995C27.3224 22.5989 27.0895 22.6495 26.8755 22.748L16.6769 27.44C16.4644 27.5376 16.2334 27.5882 15.9995 27.5882C15.7657 27.5882 15.5346 27.5376 15.3222 27.44L5.1222 22.7466C4.90838 22.6484 4.67574 22.5978 4.44042 22.5985C4.20511 22.5992 3.97277 22.6511 3.75953 22.7506L0.77953 24.144C0.682403 24.189 0.60022 24.2609 0.542716 24.3512C0.485213 24.4415 0.454799 24.5464 0.45508 24.6535C0.455361 24.7605 0.486325 24.8653 0.544301 24.9553C0.602277 25.0453 0.684836 25.1168 0.782198 25.1613L15.3222 31.852C15.7515 32.0493 16.2475 32.0493 16.6769 31.852L31.2169 25.1613C31.3142 25.1168 31.3968 25.0453 31.4548 24.9553C31.5127 24.8653 31.5437 24.7605 31.544 24.6535C31.5443 24.5464 31.5138 24.4415 31.4563 24.3512C31.3988 24.2609 31.3167 24.189 31.2195 24.144Z" fill="#2EC5CE"/>
</svg>
