<svg width="32" height="32" viewBox="0 0 32 32" fill="none" xmlns="http://www.w3.org/2000/svg">
<path d="M6.66634 1.33331H2.66634C2.31272 1.33331 1.97358 1.47379 1.72353 1.72384C1.47348 1.97388 1.33301 2.31302 1.33301 2.66665V29.3333C1.33301 29.6869 1.47348 30.0261 1.72353 30.2761C1.97358 30.5262 2.31272 30.6666 2.66634 30.6666H6.66634V1.33331Z" fill="#D6B1FF"/>
<path d="M9.33301 30.6666H22.6663V1.33331H9.33301V30.6666ZM15.9997 25.3333C15.6461 25.3333 15.3069 25.1928 15.0569 24.9428C14.8068 24.6927 14.6663 24.3536 14.6663 24C14.6663 23.6464 14.8068 23.3072 15.0569 23.0572C15.3069 22.8071 15.6461 22.6666 15.9997 22.6666C16.3533 22.6666 16.6924 22.8071 16.9425 23.0572C17.1925 23.3072 17.333 23.6464 17.333 24C17.333 24.3536 17.1925 24.6927 16.9425 24.9428C16.6924 25.1928 16.3533 25.3333 15.9997 25.3333ZM15.9997 6.66665C16.3533 6.66665 16.6924 6.80712 16.9425 7.05717C17.1925 7.30722 17.333 7.64636 17.333 7.99998C17.333 8.3536 17.1925 8.69274 16.9425 8.94279C16.6924 9.19284 16.3533 9.33331 15.9997 9.33331C15.6461 9.33331 15.3069 9.19284 15.0569 8.94279C14.8068 8.69274 14.6663 8.3536 14.6663 7.99998C14.6663 7.64636 14.8068 7.30722 15.0569 7.05717C15.3069 6.80712 15.6461 6.66665 15.9997 6.66665ZM15.9997 14.6666C16.3533 14.6666 16.6924 14.8071 16.9425 15.0572C17.1925 15.3072 17.333 15.6464 17.333 16C17.333 16.3536 17.1925 16.6927 16.9425 16.9428C16.6924 17.1928 16.3533 17.3333 15.9997 17.3333C15.6461 17.3333 15.3069 17.1928 15.0569 16.9428C14.8068 16.6927 14.6663 16.3536 14.6663 16C14.6663 15.6464 14.8068 15.3072 15.0569 15.0572C15.3069 14.8071 15.6461 14.6666 15.9997 14.6666Z" fill="#8C30F5"/>
<path d="M29.333 1.33331H25.333V30.6666H29.333C29.6866 30.6666 30.0258 30.5262 30.2758 30.2761C30.5259 30.0261 30.6663 29.6869 30.6663 29.3333V2.66665C30.6663 2.31302 30.5259 1.97388 30.2758 1.72384C30.0258 1.47379 29.6866 1.33331 29.333 1.33331Z" fill="#2EC5CE"/>
</svg>
